<mxfile host="app.diagrams.net" modified="2022-09-07T04:16:59.217Z" agent="5.0 (Windows NT 10.0; Win64; x64) AppleWebKit/537.36 (KHTML, like Gecko) Chrome/104.0.0.0 Safari/537.36" etag="DLMVjVpxoT778T0wEXU2" version="20.2.7" type="github">
  <diagram id="pT4j3ety2X3b3UIeEMZv" name="Trang-1">
    <mxGraphModel dx="1379" dy="853" grid="1" gridSize="10" guides="1" tooltips="1" connect="1" arrows="1" fold="1" page="1" pageScale="1" pageWidth="1169" pageHeight="827" math="0" shadow="0">
      <root>
        <mxCell id="0" />
        <mxCell id="1" parent="0" />
        <mxCell id="5LLxUzfuv4CJShBW6oiS-1" value="" style="rounded=0;whiteSpace=wrap;html=1;dashed=1;fillColor=#d5e8d4;strokeColor=#82b366;" vertex="1" parent="1">
          <mxGeometry x="320" y="240" width="520" height="800" as="geometry" />
        </mxCell>
        <mxCell id="5LLxUzfuv4CJShBW6oiS-2" value="" style="rounded=0;whiteSpace=wrap;html=1;dashed=1;dashPattern=1 2;fillColor=#fff2cc;strokeColor=#d6b656;" vertex="1" parent="1">
          <mxGeometry x="692.77" y="280" width="117.23" height="720" as="geometry" />
        </mxCell>
        <mxCell id="5LLxUzfuv4CJShBW6oiS-3" value="" style="rounded=0;whiteSpace=wrap;html=1;dashed=1;fillColor=#dae8fc;strokeColor=#6c8ebf;" vertex="1" parent="1">
          <mxGeometry x="80" y="160" width="120" height="960" as="geometry" />
        </mxCell>
        <mxCell id="5LLxUzfuv4CJShBW6oiS-4" value="" style="aspect=fixed;perimeter=ellipsePerimeter;html=1;align=center;shadow=0;dashed=0;spacingTop=3;image;image=img/lib/active_directory/databases.svg;" vertex="1" parent="1">
          <mxGeometry x="104.28" y="170" width="71.43" height="70" as="geometry" />
        </mxCell>
        <mxCell id="5LLxUzfuv4CJShBW6oiS-5" value="CSDL Hướng Dẫn Viên Du Lịch" style="text;html=1;strokeColor=none;fillColor=none;align=center;verticalAlign=middle;whiteSpace=wrap;rounded=0;" vertex="1" parent="1">
          <mxGeometry x="90" y="240" width="100" height="30" as="geometry" />
        </mxCell>
        <mxCell id="5LLxUzfuv4CJShBW6oiS-6" value="" style="aspect=fixed;perimeter=ellipsePerimeter;html=1;align=center;shadow=0;dashed=0;spacingTop=3;image;image=img/lib/active_directory/databases.svg;" vertex="1" parent="1">
          <mxGeometry x="104.28" y="280" width="71.43" height="70" as="geometry" />
        </mxCell>
        <mxCell id="5LLxUzfuv4CJShBW6oiS-7" value="CSDL Doanh Nghiệp Lữ Hành" style="text;html=1;strokeColor=none;fillColor=none;align=center;verticalAlign=middle;whiteSpace=wrap;rounded=0;" vertex="1" parent="1">
          <mxGeometry x="90" y="350" width="100" height="30" as="geometry" />
        </mxCell>
        <mxCell id="5LLxUzfuv4CJShBW6oiS-8" value="" style="aspect=fixed;perimeter=ellipsePerimeter;html=1;align=center;shadow=0;dashed=0;spacingTop=3;image;image=img/lib/active_directory/databases.svg;" vertex="1" parent="1">
          <mxGeometry x="104.28999999999999" y="400" width="71.43" height="70" as="geometry" />
        </mxCell>
        <mxCell id="5LLxUzfuv4CJShBW6oiS-9" value="CSDL Cơ Sở Lưu Trú Du Lịch" style="text;html=1;strokeColor=none;fillColor=none;align=center;verticalAlign=middle;whiteSpace=wrap;rounded=0;" vertex="1" parent="1">
          <mxGeometry x="90" y="470" width="100" height="30" as="geometry" />
        </mxCell>
        <mxCell id="5LLxUzfuv4CJShBW6oiS-10" value="CSDL 63 Sở Tỉnh Thành" style="text;html=1;strokeColor=none;fillColor=none;align=center;verticalAlign=middle;whiteSpace=wrap;rounded=0;" vertex="1" parent="1">
          <mxGeometry x="90" y="590" width="100" height="30" as="geometry" />
        </mxCell>
        <mxCell id="5LLxUzfuv4CJShBW6oiS-11" value="" style="image;html=1;image=img/lib/clip_art/computers/Database_128x128.png" vertex="1" parent="1">
          <mxGeometry x="365" y="600" width="80" height="80" as="geometry" />
        </mxCell>
        <mxCell id="5LLxUzfuv4CJShBW6oiS-12" value="" style="image;html=1;image=img/lib/clip_art/computers/Database_128x128.png" vertex="1" parent="1">
          <mxGeometry x="540" y="600" width="80" height="80" as="geometry" />
        </mxCell>
        <mxCell id="5LLxUzfuv4CJShBW6oiS-13" value="" style="aspect=fixed;perimeter=ellipsePerimeter;html=1;align=center;shadow=0;dashed=0;spacingTop=3;image;image=img/lib/active_directory/database.svg;" vertex="1" parent="1">
          <mxGeometry x="700" y="760" width="94.59" height="70" as="geometry" />
        </mxCell>
        <mxCell id="5LLxUzfuv4CJShBW6oiS-14" value="" style="aspect=fixed;perimeter=ellipsePerimeter;html=1;align=center;shadow=0;dashed=0;spacingTop=3;image;image=img/lib/active_directory/database.svg;" vertex="1" parent="1">
          <mxGeometry x="700" y="280" width="94.59" height="70" as="geometry" />
        </mxCell>
        <mxCell id="5LLxUzfuv4CJShBW6oiS-15" value="" style="aspect=fixed;perimeter=ellipsePerimeter;html=1;align=center;shadow=0;dashed=0;spacingTop=3;image;image=img/lib/active_directory/database.svg;" vertex="1" parent="1">
          <mxGeometry x="700" y="400" width="94.59" height="70" as="geometry" />
        </mxCell>
        <mxCell id="5LLxUzfuv4CJShBW6oiS-16" value="" style="aspect=fixed;perimeter=ellipsePerimeter;html=1;align=center;shadow=0;dashed=0;spacingTop=3;image;image=img/lib/active_directory/database.svg;" vertex="1" parent="1">
          <mxGeometry x="700" y="520" width="94.59" height="70" as="geometry" />
        </mxCell>
        <mxCell id="5LLxUzfuv4CJShBW6oiS-17" value="Staging Area (Vùng dữ liệu đệm)" style="text;html=1;strokeColor=none;fillColor=none;align=center;verticalAlign=middle;whiteSpace=wrap;rounded=0;" vertex="1" parent="1">
          <mxGeometry x="360" y="680" width="90" height="50" as="geometry" />
        </mxCell>
        <mxCell id="5LLxUzfuv4CJShBW6oiS-18" value="Summary Area (Vùng dữ liệu tổng hợp)" style="text;html=1;strokeColor=none;fillColor=none;align=center;verticalAlign=middle;whiteSpace=wrap;rounded=0;" vertex="1" parent="1">
          <mxGeometry x="535" y="680" width="90" height="50" as="geometry" />
        </mxCell>
        <mxCell id="5LLxUzfuv4CJShBW6oiS-19" value="Data Mart Lữ Hành" style="text;html=1;strokeColor=none;fillColor=none;align=center;verticalAlign=middle;whiteSpace=wrap;rounded=0;" vertex="1" parent="1">
          <mxGeometry x="705.0400000000001" y="345" width="92.7" height="40" as="geometry" />
        </mxCell>
        <mxCell id="5LLxUzfuv4CJShBW6oiS-20" value="Data Mart Thị Trường Du Lịch" style="text;html=1;strokeColor=none;fillColor=none;align=center;verticalAlign=middle;whiteSpace=wrap;rounded=0;" vertex="1" parent="1">
          <mxGeometry x="692.7700000000001" y="460" width="109.05" height="50" as="geometry" />
        </mxCell>
        <mxCell id="5LLxUzfuv4CJShBW6oiS-21" value="Data Mart Kế Hoạch Tài Chính" style="text;html=1;strokeColor=none;fillColor=none;align=center;verticalAlign=middle;whiteSpace=wrap;rounded=0;" vertex="1" parent="1">
          <mxGeometry x="695.47" y="585" width="103.65" height="50" as="geometry" />
        </mxCell>
        <mxCell id="5LLxUzfuv4CJShBW6oiS-22" value="Data Mart Cán Bộ" style="text;html=1;strokeColor=none;fillColor=none;align=center;verticalAlign=middle;whiteSpace=wrap;rounded=0;" vertex="1" parent="1">
          <mxGeometry x="705.04" y="710" width="92.7" height="50" as="geometry" />
        </mxCell>
        <mxCell id="5LLxUzfuv4CJShBW6oiS-23" value="" style="shape=singleArrow;whiteSpace=wrap;html=1;" vertex="1" parent="1">
          <mxGeometry x="200" y="630" width="170" height="20" as="geometry" />
        </mxCell>
        <mxCell id="5LLxUzfuv4CJShBW6oiS-24" value="" style="shape=singleArrow;whiteSpace=wrap;html=1;" vertex="1" parent="1">
          <mxGeometry x="440" y="630" width="100" height="20" as="geometry" />
        </mxCell>
        <mxCell id="5LLxUzfuv4CJShBW6oiS-25" value="" style="shape=singleArrow;whiteSpace=wrap;html=1;" vertex="1" parent="1">
          <mxGeometry x="610" y="630" width="80" height="20" as="geometry" />
        </mxCell>
        <mxCell id="5LLxUzfuv4CJShBW6oiS-26" value="ETL" style="text;html=1;strokeColor=none;fillColor=none;align=center;verticalAlign=middle;whiteSpace=wrap;rounded=0;dashed=1;dashPattern=1 2;fontStyle=1" vertex="1" parent="1">
          <mxGeometry x="230" y="610" width="60" height="30" as="geometry" />
        </mxCell>
        <mxCell id="5LLxUzfuv4CJShBW6oiS-27" value="ETL" style="text;html=1;strokeColor=none;fillColor=none;align=center;verticalAlign=middle;whiteSpace=wrap;rounded=0;dashed=1;dashPattern=1 2;fontStyle=1" vertex="1" parent="1">
          <mxGeometry x="450" y="610" width="60" height="30" as="geometry" />
        </mxCell>
        <mxCell id="5LLxUzfuv4CJShBW6oiS-28" value="ETL" style="text;html=1;strokeColor=none;fillColor=none;align=center;verticalAlign=middle;whiteSpace=wrap;rounded=0;dashed=1;dashPattern=1 2;fontStyle=1" vertex="1" parent="1">
          <mxGeometry x="610" y="610" width="60" height="30" as="geometry" />
        </mxCell>
        <mxCell id="5LLxUzfuv4CJShBW6oiS-29" value="" style="rounded=0;whiteSpace=wrap;html=1;dashed=1;fillColor=#e1d5e7;strokeColor=#9673a6;" vertex="1" parent="1">
          <mxGeometry x="960" y="240" width="120" height="800" as="geometry" />
        </mxCell>
        <mxCell id="5LLxUzfuv4CJShBW6oiS-30" value="" style="aspect=fixed;perimeter=ellipsePerimeter;html=1;align=center;shadow=0;dashed=0;spacingTop=3;image;image=img/lib/active_directory/workspace_site.svg;dashPattern=1 2;" vertex="1" parent="1">
          <mxGeometry x="980" y="280" width="82.47" height="80" as="geometry" />
        </mxCell>
        <mxCell id="5LLxUzfuv4CJShBW6oiS-31" value="" style="image;html=1;image=img/lib/clip_art/finance/Graph_128x128.png;dashed=1;dashPattern=1 2;" vertex="1" parent="1">
          <mxGeometry x="980" y="520" width="80" height="80" as="geometry" />
        </mxCell>
        <mxCell id="5LLxUzfuv4CJShBW6oiS-32" value="Report" style="text;html=1;strokeColor=none;fillColor=none;align=center;verticalAlign=middle;whiteSpace=wrap;rounded=0;" vertex="1" parent="1">
          <mxGeometry x="974.8899999999999" y="360" width="92.7" height="30" as="geometry" />
        </mxCell>
        <mxCell id="5LLxUzfuv4CJShBW6oiS-33" value="Dashboard" style="text;html=1;strokeColor=none;fillColor=none;align=center;verticalAlign=middle;whiteSpace=wrap;rounded=0;" vertex="1" parent="1">
          <mxGeometry x="973.6499999999999" y="470" width="92.7" height="30" as="geometry" />
        </mxCell>
        <mxCell id="5LLxUzfuv4CJShBW6oiS-34" value="" style="shape=singleArrow;whiteSpace=wrap;html=1;" vertex="1" parent="1">
          <mxGeometry x="810" y="630" width="150" height="20" as="geometry" />
        </mxCell>
        <mxCell id="5LLxUzfuv4CJShBW6oiS-35" value="NGUỒN DỮ LIỆU" style="text;html=1;strokeColor=none;fillColor=none;align=center;verticalAlign=middle;whiteSpace=wrap;rounded=0;dashed=1;dashPattern=1 2;fontStyle=1;fontSize=16;" vertex="1" parent="1">
          <mxGeometry x="70" y="130" width="140" height="30" as="geometry" />
        </mxCell>
        <mxCell id="5LLxUzfuv4CJShBW6oiS-36" value="KHO DỮ LIỆU" style="text;html=1;strokeColor=none;fillColor=none;align=center;verticalAlign=middle;whiteSpace=wrap;rounded=0;dashed=1;dashPattern=1 2;fontStyle=1;fontSize=16;" vertex="1" parent="1">
          <mxGeometry x="520" y="210" width="120" height="30" as="geometry" />
        </mxCell>
        <mxCell id="5LLxUzfuv4CJShBW6oiS-37" value="KHAI THÁC DỮ LIỆU" style="text;html=1;strokeColor=none;fillColor=none;align=center;verticalAlign=middle;whiteSpace=wrap;rounded=0;dashed=1;dashPattern=1 2;fontStyle=1;fontSize=16;" vertex="1" parent="1">
          <mxGeometry x="930" y="210" width="170" height="30" as="geometry" />
        </mxCell>
        <mxCell id="5LLxUzfuv4CJShBW6oiS-38" value="" style="aspect=fixed;perimeter=ellipsePerimeter;html=1;align=center;shadow=0;dashed=0;spacingTop=3;image;image=img/lib/active_directory/databases.svg;" vertex="1" parent="1">
          <mxGeometry x="104.27999999999999" y="520" width="71.43" height="70" as="geometry" />
        </mxCell>
        <mxCell id="5LLxUzfuv4CJShBW6oiS-39" value="" style="aspect=fixed;perimeter=ellipsePerimeter;html=1;align=center;shadow=0;dashed=0;spacingTop=3;image;image=img/lib/active_directory/databases.svg;" vertex="1" parent="1">
          <mxGeometry x="104.28999999999999" y="640" width="71.43" height="70" as="geometry" />
        </mxCell>
        <mxCell id="5LLxUzfuv4CJShBW6oiS-40" value="" style="aspect=fixed;perimeter=ellipsePerimeter;html=1;align=center;shadow=0;dashed=0;spacingTop=3;image;image=img/lib/active_directory/databases.svg;" vertex="1" parent="1">
          <mxGeometry x="104.27999999999999" y="760" width="71.43" height="70" as="geometry" />
        </mxCell>
        <mxCell id="5LLxUzfuv4CJShBW6oiS-41" value="CSDL Chatbot" style="text;html=1;strokeColor=none;fillColor=none;align=center;verticalAlign=middle;whiteSpace=wrap;rounded=0;" vertex="1" parent="1">
          <mxGeometry x="90" y="710" width="100" height="30" as="geometry" />
        </mxCell>
        <mxCell id="5LLxUzfuv4CJShBW6oiS-42" value="CSDL App Du Lịch Thông Minh" style="text;html=1;strokeColor=none;fillColor=none;align=center;verticalAlign=middle;whiteSpace=wrap;rounded=0;" vertex="1" parent="1">
          <mxGeometry x="90" y="830" width="100" height="30" as="geometry" />
        </mxCell>
        <mxCell id="5LLxUzfuv4CJShBW6oiS-43" value="" style="aspect=fixed;perimeter=ellipsePerimeter;html=1;align=center;shadow=0;dashed=0;spacingTop=3;image;image=img/lib/active_directory/databases.svg;" vertex="1" parent="1">
          <mxGeometry x="104.27999999999999" y="880" width="71.43" height="70" as="geometry" />
        </mxCell>
        <mxCell id="5LLxUzfuv4CJShBW6oiS-44" value="CSDL Số Hóa Điểm Đến" style="text;html=1;strokeColor=none;fillColor=none;align=center;verticalAlign=middle;whiteSpace=wrap;rounded=0;" vertex="1" parent="1">
          <mxGeometry x="90" y="950" width="100" height="30" as="geometry" />
        </mxCell>
        <mxCell id="5LLxUzfuv4CJShBW6oiS-45" value="" style="aspect=fixed;perimeter=ellipsePerimeter;html=1;align=center;shadow=0;dashed=0;spacingTop=3;image;image=img/lib/active_directory/databases.svg;" vertex="1" parent="1">
          <mxGeometry x="104.27999999999999" y="1000" width="71.43" height="70" as="geometry" />
        </mxCell>
        <mxCell id="5LLxUzfuv4CJShBW6oiS-46" value="CSDL Khác" style="text;html=1;strokeColor=none;fillColor=none;align=center;verticalAlign=middle;whiteSpace=wrap;rounded=0;" vertex="1" parent="1">
          <mxGeometry x="90" y="1070" width="100" height="30" as="geometry" />
        </mxCell>
        <mxCell id="5LLxUzfuv4CJShBW6oiS-47" value="" style="aspect=fixed;perimeter=ellipsePerimeter;html=1;align=center;shadow=0;dashed=0;spacingTop=3;image;image=img/lib/active_directory/database.svg;" vertex="1" parent="1">
          <mxGeometry x="700" y="640" width="94.59" height="70" as="geometry" />
        </mxCell>
        <mxCell id="5LLxUzfuv4CJShBW6oiS-48" value="Data Mart Hợp Tác Quốc Tế" style="text;html=1;strokeColor=none;fillColor=none;align=center;verticalAlign=middle;whiteSpace=wrap;rounded=0;" vertex="1" parent="1">
          <mxGeometry x="700.9499999999999" y="830" width="92.7" height="50" as="geometry" />
        </mxCell>
        <mxCell id="5LLxUzfuv4CJShBW6oiS-49" value="" style="aspect=fixed;perimeter=ellipsePerimeter;html=1;align=center;shadow=0;dashed=0;spacingTop=3;image;image=img/lib/active_directory/database.svg;" vertex="1" parent="1">
          <mxGeometry x="704.09" y="880" width="94.59" height="70" as="geometry" />
        </mxCell>
        <mxCell id="5LLxUzfuv4CJShBW6oiS-50" value="Data Mart Văn Phòng" style="text;html=1;strokeColor=none;fillColor=none;align=center;verticalAlign=middle;whiteSpace=wrap;rounded=0;" vertex="1" parent="1">
          <mxGeometry x="700.9499999999999" y="940" width="92.7" height="50" as="geometry" />
        </mxCell>
        <mxCell id="5LLxUzfuv4CJShBW6oiS-51" value="" style="sketch=0;aspect=fixed;html=1;points=[];align=center;image;fontSize=12;image=img/lib/mscae/Shared_Dashboard.svg;" vertex="1" parent="1">
          <mxGeometry x="980" y="400" width="80" height="65.6" as="geometry" />
        </mxCell>
        <mxCell id="5LLxUzfuv4CJShBW6oiS-52" value="" style="sketch=0;aspect=fixed;html=1;points=[];align=center;image;fontSize=12;image=img/lib/mscae/Mobile_Engagement.svg;" vertex="1" parent="1">
          <mxGeometry x="990" y="650" width="60" height="88.24" as="geometry" />
        </mxCell>
        <mxCell id="5LLxUzfuv4CJShBW6oiS-53" value="Visualization" style="text;html=1;strokeColor=none;fillColor=none;align=center;verticalAlign=middle;whiteSpace=wrap;rounded=0;" vertex="1" parent="1">
          <mxGeometry x="968.6499999999999" y="605" width="92.7" height="30" as="geometry" />
        </mxCell>
        <mxCell id="5LLxUzfuv4CJShBW6oiS-54" value="" style="sketch=0;aspect=fixed;html=1;points=[];align=center;image;fontSize=12;image=img/lib/mscae/CustomDomain.svg;" vertex="1" parent="1">
          <mxGeometry x="985" y="801.2" width="70" height="58.8" as="geometry" />
        </mxCell>
        <mxCell id="5LLxUzfuv4CJShBW6oiS-55" value="" style="sketch=0;aspect=fixed;html=1;points=[];align=center;image;fontSize=12;image=img/lib/mscae/WebHosting.svg;" vertex="1" parent="1">
          <mxGeometry x="981.23" y="910" width="80" height="80" as="geometry" />
        </mxCell>
        <mxCell id="5LLxUzfuv4CJShBW6oiS-56" value="Mobile Services" style="text;html=1;strokeColor=none;fillColor=none;align=center;verticalAlign=middle;whiteSpace=wrap;rounded=0;" vertex="1" parent="1">
          <mxGeometry x="968.6499999999999" y="740" width="92.7" height="30" as="geometry" />
        </mxCell>
        <mxCell id="5LLxUzfuv4CJShBW6oiS-57" value="Web Services" style="text;html=1;strokeColor=none;fillColor=none;align=center;verticalAlign=middle;whiteSpace=wrap;rounded=0;" vertex="1" parent="1">
          <mxGeometry x="968.6499999999999" y="870" width="92.7" height="30" as="geometry" />
        </mxCell>
        <mxCell id="5LLxUzfuv4CJShBW6oiS-58" value="App Services" style="text;html=1;strokeColor=none;fillColor=none;align=center;verticalAlign=middle;whiteSpace=wrap;rounded=0;" vertex="1" parent="1">
          <mxGeometry x="968.6499999999999" y="990" width="92.7" height="30" as="geometry" />
        </mxCell>
      </root>
    </mxGraphModel>
  </diagram>
</mxfile>
